<svg width="800" height="800" viewBox="0 0 800 800" fill="none" xmlns="http://www.w3.org/2000/svg">
<path fill-rule="evenodd" clip-rule="evenodd" d="M272.961 88.3798C277.078 96.6128 273.741 106.624 265.508 110.741C243.562 121.713 192.284 172.818 215.262 287.71C220.15 312.151 238.035 336.035 260.097 356.327C281.884 376.366 305.644 390.98 318.521 397.196C326.81 401.198 330.286 411.162 326.284 419.451C322.282 427.741 312.318 431.216 304.029 427.215C288.324 419.633 261.82 403.201 237.531 380.86C213.517 358.772 189.515 328.942 182.576 294.247C157.064 166.686 213.411 99.5211 250.6 80.9263C258.833 76.8098 268.845 80.1469 272.961 88.3798Z" fill="#DA844B"/>
<path fill-rule="evenodd" clip-rule="evenodd" d="M273.841 92.1067C275.899 96.2231 274.231 101.229 270.114 103.287C244.358 116.165 191.812 171.285 215.424 289.345C220.825 316.349 240.239 341.719 262.789 362.46C285.201 383.075 309.647 398.143 323.231 404.701C327.376 406.702 329.114 411.684 327.113 415.828C325.112 419.973 320.13 421.711 315.985 419.71C300.987 412.47 275.169 396.492 251.506 374.727C227.98 353.088 205.507 324.744 199.081 292.613C174.202 168.219 229.282 105.069 262.661 88.3799C266.777 86.3216 271.783 87.9902 273.841 92.1067Z" fill="#BD6B34"/>
<path fill-rule="evenodd" clip-rule="evenodd" d="M109.283 320.914C112.347 312.234 121.867 307.681 130.547 310.744C137.484 313.193 150.601 316.428 165.726 317.366C180.918 318.308 196.779 316.848 210.094 311.142C218.554 307.516 228.352 311.435 231.978 319.896C235.604 328.356 231.685 338.154 223.224 341.78C203.424 350.266 181.832 351.762 163.662 350.635C145.426 349.504 129.271 345.643 119.453 342.177C110.773 339.114 106.22 329.594 109.283 320.914Z" fill="#DA844B"/>
<path fill-rule="evenodd" clip-rule="evenodd" d="M280.288 192.14C289.152 194.621 294.325 203.819 291.844 212.683C287.954 226.573 279.415 247.053 265.868 264.148C252.39 281.156 231.692 297.426 203.854 295.789C194.665 295.248 187.654 287.361 188.194 278.172C188.735 268.983 196.622 261.973 205.811 262.513C218.185 263.241 229.517 256.35 239.743 243.446C249.899 230.629 256.735 214.444 259.745 203.695C262.227 194.831 271.424 189.658 280.288 192.14Z" fill="#DA844B"/>
<path fill-rule="evenodd" clip-rule="evenodd" d="M124.809 156.342C133.848 154.604 142.585 160.523 144.323 169.562C146.466 180.703 152.111 197.614 161.554 211.284C170.972 224.918 182.302 232.918 195.962 232.918C205.167 232.918 212.628 240.38 212.628 249.585C212.628 258.789 205.167 266.251 195.962 266.251C167.044 266.251 146.836 248.627 134.128 230.229C121.444 211.867 114.375 190.341 111.59 175.857C109.851 166.818 115.77 158.081 124.809 156.342Z" fill="#DA844B"/>
<path fill-rule="evenodd" clip-rule="evenodd" d="M263.115 148.338C270.043 154.399 270.745 164.928 264.683 171.856C259.997 177.211 251.948 184.258 241.802 189.738C231.639 195.227 218.086 199.82 202.992 198.143C193.843 197.126 187.251 188.886 188.268 179.737C189.284 170.589 197.524 163.997 206.673 165.013C212.867 165.701 219.519 163.888 225.963 160.408C232.423 156.919 237.384 152.435 239.597 149.906C245.659 142.978 256.188 142.276 263.115 148.338Z" fill="#DA844B"/>
<path fill-rule="evenodd" clip-rule="evenodd" d="M179.295 99.3267C188.5 99.3267 195.962 106.789 195.962 115.993C195.962 119.26 196.43 125.173 197.858 131.064C199.395 137.402 201.438 141.177 202.907 142.646C209.416 149.155 209.416 159.707 202.907 166.216C196.399 172.725 185.846 172.725 179.337 166.216C171.345 158.224 167.475 147.215 165.463 138.917C163.343 130.172 162.629 121.597 162.629 115.993C162.629 106.789 170.091 99.3267 179.295 99.3267Z" fill="#DA844B"/>
<path fill-rule="evenodd" clip-rule="evenodd" d="M217.434 125.965C221.504 128.115 223.06 133.157 220.91 137.226C211.67 154.715 191.719 202.283 197.362 264.35C197.778 268.933 194.4 272.987 189.817 273.403C185.233 273.82 181.18 270.442 180.763 265.859C174.739 199.592 195.968 148.757 206.173 129.441C208.323 125.371 213.365 123.815 217.434 125.965Z" fill="#FAA973"/>
<path fill-rule="evenodd" clip-rule="evenodd" d="M518.123 88.3798C514.007 96.6128 517.344 106.624 525.577 110.741C547.522 121.713 598.8 172.818 575.822 287.71C570.934 312.151 553.049 336.035 530.988 356.327C509.201 376.366 485.44 390.98 472.564 397.196C464.274 401.198 460.798 411.162 464.8 419.451C468.802 427.741 478.766 431.216 487.055 427.215C502.76 419.633 529.265 403.201 553.553 380.86C577.568 358.772 601.57 328.942 608.508 294.247C634.02 166.686 577.673 99.5211 540.484 80.9263C532.251 76.8098 522.24 80.1469 518.123 88.3798Z" fill="#DA844B"/>
<path fill-rule="evenodd" clip-rule="evenodd" d="M533.91 92.1067C531.852 96.2231 533.52 101.229 537.637 103.287C563.393 116.165 615.939 171.285 592.327 289.345C586.926 316.349 567.512 341.719 544.962 362.46C522.55 383.075 498.104 398.143 484.52 404.701C480.375 406.702 478.637 411.684 480.638 415.828C482.639 419.973 487.621 421.711 491.766 419.71C506.764 412.47 532.582 396.492 556.245 374.727C579.771 353.088 602.244 324.744 608.67 292.613C633.549 168.219 578.469 105.069 545.09 88.3799C540.974 86.3216 535.968 87.9902 533.91 92.1067Z" fill="#BD6B34"/>
<path fill-rule="evenodd" clip-rule="evenodd" d="M681.801 320.913C678.737 312.233 669.217 307.68 660.537 310.744C653.6 313.192 640.483 316.427 625.358 317.365C610.166 318.308 594.305 316.847 580.99 311.141C572.53 307.515 562.732 311.434 559.106 319.895C555.48 328.355 559.399 338.153 567.86 341.779C587.66 350.265 609.252 351.762 627.422 350.634C645.658 349.503 661.813 345.642 671.631 342.177C680.311 339.113 684.864 329.593 681.801 320.913Z" fill="#DA844B"/>
<path fill-rule="evenodd" clip-rule="evenodd" d="M510.796 192.14C501.932 194.622 496.759 203.819 499.24 212.683C503.13 226.574 511.669 247.053 525.216 264.148C538.694 281.157 559.392 297.426 587.23 295.789C596.419 295.248 603.43 287.361 602.89 278.172C602.349 268.983 594.462 261.973 585.273 262.513C572.9 263.241 561.567 256.35 551.341 243.446C541.185 230.629 534.349 214.444 531.339 203.695C528.857 194.831 519.66 189.658 510.796 192.14Z" fill="#DA844B"/>
<path fill-rule="evenodd" clip-rule="evenodd" d="M666.275 156.343C657.236 154.605 648.499 160.523 646.761 169.562C644.618 180.703 638.973 197.614 629.53 211.284C620.113 224.918 608.782 232.918 595.122 232.918C585.918 232.918 578.456 240.38 578.456 249.585C578.456 258.79 585.918 266.252 595.122 266.252C624.04 266.252 644.248 248.627 656.956 230.229C669.64 211.868 676.709 190.341 679.494 175.857C681.233 166.818 675.314 158.081 666.275 156.343Z" fill="#DA844B"/>
<path fill-rule="evenodd" clip-rule="evenodd" d="M527.969 140.004C521.041 146.066 520.339 156.595 526.401 163.522C531.087 168.878 539.136 175.925 549.282 181.404C559.445 186.893 572.998 191.486 588.092 189.809C597.241 188.793 603.833 180.552 602.817 171.404C601.8 162.256 593.56 155.663 584.411 156.68C578.217 157.368 571.565 155.555 565.122 152.075C558.661 148.586 553.7 144.101 551.487 141.572C545.425 134.645 534.896 133.943 527.969 140.004Z" fill="#DA844B"/>
<path fill-rule="evenodd" clip-rule="evenodd" d="M603.456 90.9933C594.251 90.9933 586.789 98.4552 586.789 107.66C586.789 110.927 586.321 116.84 584.893 122.73C583.356 129.069 581.313 132.843 579.843 134.313C573.335 140.821 573.335 151.374 579.843 157.883C586.352 164.392 596.905 164.392 603.414 157.883C611.406 149.89 615.276 138.881 617.288 130.584C619.408 121.838 620.122 113.263 620.122 107.66C620.122 98.4552 612.66 90.9933 603.456 90.9933Z" fill="#DA844B"/>
<path d="M145.697 409.247C209.563 366.669 278.751 395.448 305.362 415.16C329.016 434.083 323.102 454.583 317.189 462.468C234.4 486.122 168.366 436.843 145.697 409.247Z" fill="#944F21"/>
<path fill-rule="evenodd" clip-rule="evenodd" d="M315.531 401.952L315.773 402.145C330.652 414.048 337.778 427.881 338.967 441.505C340.099 454.493 335.674 465.599 330.522 472.468L327.158 476.954L321.767 478.494C230.13 504.676 157.792 450.228 132.818 419.826L121.129 405.595L136.452 395.379C208.747 347.183 286.003 380.079 315.282 401.767L315.531 401.952ZM145.697 409.247C148.797 413.02 152.708 417.2 157.362 421.542C186.739 448.957 245.721 482.888 317.189 462.468C323.102 454.583 329.016 434.083 305.362 415.16C280.774 396.947 219.835 370.992 160.331 400.739C155.437 403.186 150.552 406.01 145.697 409.247Z" fill="#652E0A"/>
<path d="M479.81 412.205C546.041 353.07 635.532 387.565 671.998 412.205C667.071 423.046 645.388 448.868 598.08 465.426C550.772 481.984 499.521 464.44 479.81 453.599V412.205Z" fill="#944F21"/>
<path fill-rule="evenodd" clip-rule="evenodd" d="M692.999 406.28L687.171 419.102C679.895 435.11 653.991 463.515 603.586 481.157C576.473 490.646 548.793 490.201 525.751 486.209C502.755 482.225 483.26 474.518 471.778 468.203L463.143 463.454V404.743L468.71 399.773C506.295 366.214 550.447 359.514 589.092 364.246C627.348 368.931 661.301 384.862 681.329 398.395L692.999 406.28ZM664.196 423.752C668.128 419.132 670.671 415.125 671.999 412.205C635.532 387.565 546.041 353.07 479.81 412.205V453.599C499.522 464.44 550.772 481.984 598.08 465.426C630.779 453.981 651.235 438.111 662.379 425.82C663.015 425.119 663.62 424.429 664.196 423.752Z" fill="#652E0A"/>
<path fill-rule="evenodd" clip-rule="evenodd" d="M629.8 420.565C630 415.967 626.434 412.077 621.836 411.877C609.097 411.323 588.589 411.664 568.05 414.478C547.891 417.239 526.103 422.576 512.091 433.009C508.399 435.757 507.635 440.978 510.383 444.67C513.132 448.361 518.352 449.126 522.044 446.377C532.429 438.645 550.526 433.701 570.312 430.99C589.718 428.332 609.214 428.011 621.112 428.528C625.71 428.728 629.6 425.163 629.8 420.565Z" fill="#BD6B34"/>
<path fill-rule="evenodd" clip-rule="evenodd" d="M187.099 416.3C187.877 411.764 192.184 408.717 196.72 409.495C209.288 411.649 229.26 416.324 248.738 423.42C267.856 430.386 288.021 440.213 299.508 453.375C302.534 456.842 302.176 462.107 298.709 465.133C295.241 468.159 289.977 467.801 286.951 464.334C278.438 454.579 261.797 445.917 243.033 439.08C224.629 432.375 205.642 427.934 193.904 425.922C189.368 425.144 186.321 420.837 187.099 416.3Z" fill="#BD6B34"/>
<path d="M411.804 332.373C249.675 332.373 255.097 522.591 278.751 577.783C358.583 589.61 521.204 607.942 533.031 586.653C547.815 560.043 595.123 332.373 411.804 332.373Z" fill="#B3642F"/>
<path fill-rule="evenodd" clip-rule="evenodd" d="M267.099 592.906L263.432 584.348C256.493 568.157 251.48 543.816 250.117 517C248.742 489.963 251.004 459.083 259.614 429.695C268.227 400.297 283.433 371.633 308.475 350.276C333.755 328.716 367.782 315.706 411.804 315.706C461.365 315.706 497.37 331.244 522.124 356.756C546.48 381.859 558.252 414.875 563.18 447.008C568.121 479.222 566.408 511.91 562.598 538.095C560.686 551.24 558.214 562.957 555.684 572.401C553.269 581.414 550.493 589.54 547.6 594.747C544.799 599.789 540.58 602.884 537.19 604.765C533.702 606.701 529.881 608.023 526.236 608.985C518.95 610.907 510.06 611.976 500.536 612.548C481.335 613.701 456.587 612.983 430.308 611.268C377.585 607.828 316.487 600.222 276.308 594.27L267.099 592.906ZM278.751 577.783C255.097 522.591 249.675 332.373 411.804 332.373C595.123 332.373 547.815 560.043 533.031 586.653C521.204 607.942 358.583 589.61 278.751 577.783Z" fill="#7A3C12"/>
<path fill-rule="evenodd" clip-rule="evenodd" d="M277.197 573.892C361.974 585.094 489.284 597.065 499.698 578.321C512.624 555.053 550.417 378.066 437.158 333.968C590.558 354.235 547.089 561.349 533.031 586.654C521.204 607.943 358.583 589.611 278.751 577.784C278.223 576.553 277.704 575.254 277.197 573.892Z" fill="#A75822"/>
<path fill-rule="evenodd" clip-rule="evenodd" d="M354.792 361.771C358.934 367.294 357.814 375.129 352.292 379.271C340.372 388.211 312.407 418.39 303.94 462.264C302.632 469.043 296.077 473.478 289.298 472.169C282.52 470.861 278.085 464.306 279.393 457.527C289.259 406.401 321.434 371.164 337.292 359.271C342.814 355.129 350.649 356.248 354.792 361.771Z" fill="#CB7941"/>
<path d="M397.021 444.731C397.021 461.06 386.431 474.298 373.367 474.298C360.303 474.298 349.713 461.06 349.713 444.731C349.713 428.401 360.303 415.163 373.367 415.163C386.431 415.163 397.021 428.401 397.021 444.731Z" fill="#6B310A"/>
<path d="M473.896 444.731C473.896 461.06 463.306 474.298 450.242 474.298C437.178 474.298 426.588 461.06 426.588 444.731C426.588 428.401 437.178 415.163 450.242 415.163C463.306 415.163 473.896 428.401 473.896 444.731Z" fill="#6B310A"/>
<path d="M267.377 530.475C314.685 485.533 367.906 511.749 388.604 530.475H471.392C580.792 480.211 610.36 565.956 554.181 648.745C498.003 731.534 370.863 725.62 320.598 699.009C270.334 672.399 208.242 586.653 267.377 530.475Z" fill="#FFEFB9"/>
<path fill-rule="evenodd" clip-rule="evenodd" d="M388.604 530.475H471.393C580.792 480.211 610.36 565.956 554.181 648.745C498.003 731.534 370.863 725.62 320.598 699.009C270.334 672.399 208.242 586.653 267.377 530.475C314.685 485.533 367.906 511.749 388.604 530.475ZM467.812 513.809H394.67C381.994 503.84 362.842 493.484 340.446 490.118C313.941 486.135 283.548 492.124 255.898 518.392C238.3 535.109 229.231 554.646 227.1 575.034C225.005 595.086 229.709 614.908 237.784 632.714C253.746 667.911 284.458 698.734 312.8 713.739C341.577 728.974 389.514 737.308 437.206 731.444C485.228 725.54 536.293 704.789 567.973 658.103C583.099 635.812 592.832 612.786 596.731 591.237C600.601 569.847 598.887 548.759 589.478 531.675C579.725 513.965 562.719 502.487 540.546 499.582C519.889 496.875 495.408 501.619 467.812 513.809Z" fill="#CBB56B"/>
<path fill-rule="evenodd" clip-rule="evenodd" d="M290.079 531.424C293.434 534.575 293.601 539.848 290.451 543.204C283.911 550.169 276.213 564.55 276.509 584.066C276.803 603.371 284.948 628.466 311.312 656.826C314.445 660.197 314.253 665.47 310.882 668.604C307.511 671.737 302.238 671.545 299.105 668.174C270.468 637.368 260.211 608.469 259.845 584.319C259.481 560.381 268.866 541.845 278.299 531.796C281.449 528.441 286.723 528.274 290.079 531.424Z" fill="#FFF7DD"/>
<path fill-rule="evenodd" clip-rule="evenodd" d="M314.468 695.507C316.525 696.766 318.571 697.936 320.598 699.009C370.863 725.62 498.003 731.533 554.181 648.744C593.911 590.195 590.756 530.167 546.806 517.814C574.094 539.372 571.431 590.431 537.515 640.413C484.925 717.913 370.152 717.682 314.468 695.507ZM377.738 522.143C372.196 518.499 365.687 514.993 358.472 512.158C363.801 515.439 368.356 518.904 371.937 522.143H377.738Z" fill="#F1DE9D"/>
<path d="M497.55 560.042C497.55 600.866 457.837 645.788 408.848 645.788C359.859 645.788 320.145 600.866 320.145 560.042C320.145 519.218 359.859 492.037 408.848 492.037C457.837 492.037 497.55 519.218 497.55 560.042Z" fill="#D94A1D"/>
<path fill-rule="evenodd" clip-rule="evenodd" d="M483.457 629.906C464.825 648.865 438.545 662.455 408.848 662.455C379.151 662.455 352.871 648.865 334.238 629.906C315.744 611.087 303.479 585.636 303.479 560.042C303.479 533.631 316.522 511.928 336.201 497.341C355.615 482.95 381.443 475.37 408.848 475.37C436.252 475.37 462.08 482.95 481.494 497.341C501.174 511.928 514.217 533.631 514.217 560.042C514.217 585.636 501.952 611.087 483.457 629.906ZM408.848 645.788C457.837 645.788 497.55 600.866 497.55 560.042C497.55 519.218 457.837 492.037 408.848 492.037C359.859 492.037 320.145 519.218 320.145 560.042C320.145 600.866 359.859 645.788 408.848 645.788Z" fill="#953416"/>
<path d="M421.433 530.18C426.292 547.787 413.71 566.621 393.33 572.246C372.95 577.871 352.489 568.157 347.63 550.55C342.77 532.942 355.352 514.109 375.732 508.484C396.112 502.859 416.573 512.573 421.433 530.18Z" fill="#EC683E"/>
<path fill-rule="evenodd" clip-rule="evenodd" d="M390.194 517.664C392.807 521.453 391.853 526.643 388.065 529.256C385.861 530.775 380.464 535.002 376.975 539.189C374.029 542.724 368.774 543.202 365.238 540.256C361.703 537.309 361.225 532.055 364.171 528.519C369.016 522.705 375.771 517.488 378.602 515.535C382.391 512.922 387.581 513.876 390.194 517.664Z" fill="#FFF8F8"/>
<path d="M368.904 436.963C368.904 432.673 366.201 429.196 362.867 429.196C359.533 429.196 356.831 432.673 356.831 436.963C356.831 441.253 359.533 444.731 362.867 444.731C366.201 444.731 368.904 441.253 368.904 436.963Z" fill="#F3BC96"/>
<path d="M448.233 435.724C448.233 431.434 445.53 427.957 442.196 427.957C438.862 427.957 436.16 431.434 436.16 435.724C436.16 440.014 438.862 443.492 442.196 443.492C445.53 443.492 448.233 440.014 448.233 435.724Z" fill="#F3BC96"/>
<path d="M533.854 656.25C533.854 659.702 530.706 662.5 526.823 662.5C522.94 662.5 519.792 659.702 519.792 656.25C519.792 652.798 522.94 650 526.823 650C530.706 650 533.854 652.798 533.854 656.25Z" fill="#DEC674"/>
<path d="M502.174 652.039C502.174 655.49 499.026 658.289 495.143 658.289C491.26 658.289 488.112 655.49 488.112 652.039C488.112 648.587 491.26 645.789 495.143 645.789C499.026 645.789 502.174 648.587 502.174 652.039Z" fill="#DEC674"/>
<path d="M488.112 689.327C488.112 692.779 484.964 695.577 481.081 695.577C477.197 695.577 474.049 692.779 474.049 689.327C474.049 685.875 477.197 683.077 481.081 683.077C484.964 683.077 488.112 685.875 488.112 689.327Z" fill="#DEC674"/>
<path d="M532.099 607.234C532.099 609.38 530.141 611.121 527.726 611.121C525.311 611.121 523.353 609.38 523.353 607.234C523.353 605.087 525.311 603.347 527.726 603.347C530.141 603.347 532.099 605.087 532.099 607.234Z" fill="#DEC674"/>
<path d="M575.861 571.255C575.861 573.402 573.904 575.142 571.489 575.142C569.074 575.142 567.116 573.402 567.116 571.255C567.116 569.109 569.074 567.369 571.489 567.369C573.904 567.369 575.861 569.109 575.861 571.255Z" fill="#DEC674"/>
<path d="M549.56 587.936C549.56 590.083 547.602 591.823 545.187 591.823C542.772 591.823 540.814 590.083 540.814 587.936C540.814 585.79 542.772 584.049 545.187 584.049C547.602 584.049 549.56 585.79 549.56 587.936Z" fill="#DEC674"/>
<path d="M485.454 669.947C485.454 672.094 483.496 673.834 481.081 673.834C478.666 673.834 476.708 672.094 476.708 669.947C476.708 667.801 478.666 666.06 481.081 666.06C483.496 666.06 485.454 667.801 485.454 669.947Z" fill="#DEC674"/>
<path d="M464.36 697.812C464.36 699.959 462.402 701.699 459.987 701.699C457.572 701.699 455.614 699.959 455.614 697.812C455.614 695.665 457.572 693.925 459.987 693.925C462.402 693.925 464.36 695.665 464.36 697.812Z" fill="#DEC674"/>
<path d="M549.56 620.662C549.56 624.114 546.412 626.912 542.528 626.912C538.645 626.912 535.497 624.114 535.497 620.662C535.497 617.211 538.645 614.412 542.528 614.412C546.412 614.412 549.56 617.211 549.56 620.662Z" fill="#DEC674"/>
<path d="M524.874 630.905C524.874 635.604 520.588 639.413 515.302 639.413C510.015 639.413 505.729 635.604 505.729 630.905C505.729 626.205 510.015 622.396 515.302 622.396C520.588 622.396 524.874 626.205 524.874 630.905Z" fill="#DEC674"/>
<path d="M571.488 596.444C571.488 601.143 567.203 604.953 561.916 604.953C556.629 604.953 552.344 601.143 552.344 596.444C552.344 591.745 556.629 587.935 561.916 587.935C567.203 587.935 571.488 591.745 571.488 596.444Z" fill="#DEC674"/>
<path d="M516.695 674.569C516.695 679.268 512.409 683.078 507.122 683.078C501.836 683.078 497.55 679.268 497.55 674.569C497.55 669.87 501.836 666.06 507.122 666.06C512.409 666.06 516.695 669.87 516.695 674.569Z" fill="#DEC674"/>
</svg>
